HIERARCHY
ROOT Hips
{
	OFFSET 0.000000 0.000000 0.000000
	CHANNELS 6 Xposition Yposition Zposition Xrotation Yrotation Zrotation
	JOINT LeftUpLeg_virtual
	{
		OFFSET 0.000000 0.000000 0.000000
		CHANNELS 3 Xrotation Yrotation Zrotation
		JOINT LeftUpLeg
		{
			OFFSET 13.026900 -6.336304 -1.092800
			CHANNELS 3 Xrotation Yrotation Zrotation
			JOINT LeftLeg
			{
				OFFSET 0.524474 -46.096886 9.782700
				CHANNELS 3 Xrotation Yrotation Zrotation
				JOINT LeftFoot
				{
					OFFSET -0.524474 -53.427422 -12.948200
					CHANNELS 3 Xrotation Yrotation Zrotation
					JOINT LeftToeBase
					{
						OFFSET 0.192200 -14.009700 16.364100
						CHANNELS 3 Xrotation Yrotation Zrotation
						JOINT LeftToe_End
						{
							OFFSET -1.784700 -0.561700 9.474800
							CHANNELS 3 Xrotation Yrotation Zrotation
							End Site
							{
								OFFSET 0 0 0
							}
						}
					}
				}
			}
		}
	}
	JOINT RightUpLeg_virtual
	{
		OFFSET 0.000000 0.000000 0.000000
		CHANNELS 3 Xrotation Yrotation Zrotation
		JOINT RightUpLeg
		{
			OFFSET -12.883000 -6.336304 -1.092800
			CHANNELS 3 Xrotation Yrotation Zrotation
			JOINT RightLeg
			{
				OFFSET -0.524587 -46.096825 9.782800
				CHANNELS 3 Xrotation Yrotation Zrotation
				JOINT RightFoot
				{
					OFFSET 0.524587 -53.427383 -12.948300
					CHANNELS 3 Xrotation Yrotation Zrotation
					JOINT RightToeBase
					{
						OFFSET -0.192200 -14.009700 16.364100
						CHANNELS 3 Xrotation Yrotation Zrotation
						JOINT RightToe_End
						{
							OFFSET 1.784700 -0.561700 9.474800
							CHANNELS 3 Xrotation Yrotation Zrotation
							End Site
							{
								OFFSET 0 0 0
							}
						}
					}
				}
			}
		}
	}
	JOINT Spine_virtual
	{
		OFFSET 0.000000 0.000000 0.000000
		CHANNELS 3 Xrotation Yrotation Zrotation
		JOINT Spine
		{
			OFFSET 0.072000 7.257294 -0.789700
			CHANNELS 3 Xrotation Yrotation Zrotation
			JOINT Spine1
			{
				OFFSET 0.000000 12.508769 -0.658067
				CHANNELS 3 Xrotation Yrotation Zrotation
				JOINT Spine1_split
				{
					OFFSET 0.000000 12.508769 -0.658067
					CHANNELS 3 Xrotation Yrotation Zrotation
					JOINT Spine2
					{
						OFFSET 0.000000 12.508769 -0.658067
						CHANNELS 3 Xrotation Yrotation Zrotation
						JOINT Neck_virtual
						{
							OFFSET 0.000000 0.000000 0.000000
							CHANNELS 3 Xrotation Yrotation Zrotation
							JOINT Neck
							{
								OFFSET 0.000000 14.033295 7.520400
								CHANNELS 3 Xrotation Yrotation Zrotation
								JOINT Head
								{
									OFFSET 0.000000 8.198502 5.703100
									CHANNELS 3 Xrotation Yrotation Zrotation
									JOINT HeadTop_End
									{
										OFFSET 0.000000 17.760803 13.332701
										CHANNELS 3 Xrotation Yrotation Zrotation
										End Site
										{
											OFFSET 0 0 0
										}
									}
								}
							}
						}
						JOINT LeftShoulder_virtual
						{
							OFFSET 0.000000 0.000000 0.000000
							CHANNELS 3 Xrotation Yrotation Zrotation
							JOINT LeftShoulder
							{
								OFFSET 6.292450 5.785301 -0.669000
								CHANNELS 3 Xrotation Yrotation Zrotation
								JOINT LeftShoulder_split
								{
									OFFSET 6.292450 5.785301 -0.669000
									CHANNELS 3 Xrotation Yrotation Zrotation
									JOINT LeftArm
									{
										OFFSET 13.907140 -6.093903 1.965100
										CHANNELS 3 Xrotation Yrotation Zrotation
										JOINT LeftForeArm
										{
											OFFSET 34.140198 0.000000 0.000000
											CHANNELS 3 Xrotation Yrotation Zrotation
											JOINT LeftHand
											{
												OFFSET 40.960209 0.000000 0.000000
												CHANNELS 3 Xrotation Yrotation Zrotation
												End Site
												{
													OFFSET 0 0 0
												}
											}
										}
									}
								}
							}
						}
						JOINT RightShoulder_virtual
						{
							OFFSET 0.000000 0.000000 0.000000
							CHANNELS 3 Xrotation Yrotation Zrotation
							JOINT RightShoulder
							{
								OFFSET -6.292450 5.785301 -0.669000
								CHANNELS 3 Xrotation Yrotation Zrotation
								JOINT RightShoulder_split
								{
									OFFSET -6.292450 5.785301 -0.669000
									CHANNELS 3 Xrotation Yrotation Zrotation
									JOINT RightArm
									{
										OFFSET -13.907140 -6.093903 1.965100
										CHANNELS 3 Xrotation Yrotation Zrotation
										JOINT RightForeArm
										{
											OFFSET -34.140198 0.000000 0.000000
											CHANNELS 3 Xrotation Yrotation Zrotation
											JOINT RightHand
											{
												OFFSET -40.960209 0.000000 0.000000
												CHANNELS 3 Xrotation Yrotation Zrotation
												End Site
												{
													OFFSET 0 0 0
												}
											}
										}
									}
								}
							}
						}
					}
				}
			}
		}
	}
}
MOTION
Frames: 5
Frame Time: 0.03333333
0.739337 88.785507 -96.953629 0.000000 0.000000 0.000000 43.063875 -71.307161 33.105258 -62.071571 -15.064329 21.055788 44.772611 -2.909318 8.369481 7.591438 -1.216684 -16.433184 -4.554049 0.776480 1.106197 0.000000 0.000000 0.000000 43.006491 -71.448150 34.094754 -16.443639 8.076799 -28.217969 42.009574 -2.446587 -4.088485 4.189793 -27.037427 37.436188 -1.073710 0.926318 -1.486099 0.000000 0.000000 0.000000 39.227573 -67.351642 29.192239 2.396797 10.862362 -3.647359 -2.613972 5.092506 0.271984 0.964095 -3.145683 1.551423 0.000000 0.000000 0.000000 -1.281542 3.126356 0.850641 10.346353 4.452589 -5.951212 3.996340 17.850513 9.369865 0.000000 0.000000 0.000000 -2.160729 3.612326 0.773365 3.097931 2.891760 -12.129933 4.640011 0.518824 1.350441 -51.525038 -30.637736 -49.472358 -4.524295 -76.971137 -2.244937 0.000000 0.000000 0.000000 -2.307399 3.243751 0.830810 -13.851985 -1.893088 -1.465541 -1.826852 -1.622243 -1.063833 -105.450068 35.419640 120.489059 -2.509653 28.113793 2.426873 0.000000 0.000000 0.000000 
2.104297 90.223663 -105.827469 0.000000 0.000000 0.000000 46.756600 -72.115227 36.543646 -60.268066 -13.234943 21.155066 39.115216 -1.276335 8.013939 10.524772 0.459023 -14.920541 -5.360056 0.672531 0.698490 0.000000 0.000000 0.000000 43.898937 -72.262192 35.258587 -23.678237 4.967012 -24.723111 47.452114 -3.995658 -1.974274 1.523492 -25.036706 35.269744 -0.052490 0.896736 -1.659174 0.000000 0.000000 0.000000 40.890700 -68.239853 30.830859 2.081674 9.855316 -3.209404 -2.649049 4.465971 0.435334 0.812310 -2.240317 1.258248 0.000000 0.000000 0.000000 -1.195802 2.481181 1.076316 10.572935 4.912212 -6.077250 3.659504 18.965639 8.657781 0.000000 0.000000 0.000000 -2.093208 3.000924 1.003872 3.128701 2.919826 -12.178241 5.639568 0.953999 1.145530 -50.411389 -30.636615 -49.467799 -4.290699 -77.764026 -2.006859 0.000000 0.000000 0.000000 -2.227973 2.580175 1.011076 -13.917448 -2.034871 -1.991611 -1.181235 -1.230965 -1.361201 -105.212254 35.463623 120.486736 -2.760507 28.205447 2.570191 0.000000 0.000000 0.000000 
3.542879 91.620560 -113.619720 0.000000 0.000000 0.000000 49.310616 -72.582761 38.797879 -60.675364 -10.965940 20.716082 36.919987 -0.162463 6.826957 12.750467 0.926545 -12.621235 -5.822751 0.584779 0.313313 0.000000 0.000000 0.000000 44.550052 -72.705847 35.923783 -29.334447 0.825435 -21.360269 50.732360 -5.488825 -0.018050 -1.498826 -23.309130 32.686885 0.646994 0.835310 -1.405966 0.000000 0.000000 0.000000 42.909950 -68.996460 32.404729 1.753107 8.844552 -2.597422 -2.637243 3.677862 0.616700 0.694200 -1.155741 0.882279 0.000000 0.000000 0.000000 -1.174664 1.641689 1.315663 10.723635 5.374776 -6.212056 3.084789 20.245131 7.967318 0.000000 0.000000 0.000000 -2.039686 2.228630 1.227701 3.166186 2.948006 -12.164740 6.301668 1.737828 0.958437 -49.593573 -30.894134 -49.409124 -3.391970 -78.144372 -1.203705 0.000000 0.000000 0.000000 -2.172566 1.779669 1.204681 -14.041257 -2.176755 -2.564595 -0.693974 -1.023421 -1.811935 -105.762959 35.543123 121.051620 -3.102070 27.105126 2.676922 0.000000 0.000000 0.000000 
4.605344 92.886795 -119.772552 0.000000 0.000000 0.000000 50.073336 -72.426274 39.412309 -62.715671 -8.654373 19.733928 37.860691 0.108389 5.157995 13.953409 0.408194 -10.388766 -5.557370 0.536638 0.026516 0.000000 0.000000 0.000000 44.250422 -72.492199 35.602986 -33.025918 -3.464111 -18.785319 52.140582 -6.926989 1.572664 -4.120194 -22.024266 30.192872 0.631252 0.726270 -0.826335 0.000000 0.000000 0.000000 44.609939 -69.553736 33.636516 1.501140 7.954583 -1.998347 -2.558407 2.931486 0.758333 0.580468 -0.157751 0.641987 0.000000 0.000000 0.000000 -1.228662 0.826046 1.475250 10.742836 5.750507 -6.342588 2.367805 21.398204 7.507023 0.000000 0.000000 0.000000 -2.003071 1.478713 1.363485 3.212048 3.065910 -12.056519 6.564178 2.809755 0.869458 -49.208576 -31.189383 -49.294271 -2.156231 -78.223479 -0.136246 0.000000 0.000000 0.000000 -2.136274 1.032464 1.332651 -14.220357 -2.414593 -3.092870 -0.324546 -1.061033 -2.166402 -107.002215 35.773939 122.298307 -3.384612 25.505055 2.668305 0.000000 0.000000 0.000000 
5.242431 94.058800 -124.118393 0.000000 0.000000 0.000000 49.500287 -71.810539 38.847077 -65.229222 -6.729125 18.260956 40.422624 -0.555259 3.606759 14.402593 -0.782839 -9.238771 -5.072229 0.499948 -0.033715 0.000000 0.000000 0.000000 43.570798 -71.905663 34.994194 -35.139547 -6.979414 -17.209061 52.225761 -8.199055 2.725294 -6.376864 -21.214417 27.757494 0.470579 0.560401 -0.213430 0.000000 0.000000 0.000000 45.984296 -69.985574 34.718357 1.388044 7.259724 -1.562404 -2.430885 2.387236 0.839395 0.681657 0.689660 0.618328 0.000000 0.000000 0.000000 -1.357427 0.224205 1.506644 10.642924 6.013000 -6.420153 1.685137 22.199384 7.352251 0.000000 0.000000 0.000000 -2.011892 0.912954 1.382967 3.235475 3.218885 -11.891207 6.444987 3.892142 0.968268 -49.204608 -31.340296 -49.062909 -1.171473 -78.097920 0.656023 0.000000 0.000000 0.000000 -2.123719 0.497754 1.372014 -14.409877 -2.843631 -3.444571 -0.050468 -1.249001 -2.286190 -108.404890 36.132083 124.006674 -3.504194 24.265183 2.532928 0.000000 0.000000 0.000000 
